<mxfile host="app.diagrams.net" modified="2023-03-09T10:38:11.536Z" agent="5.0 (Macintosh; Intel Mac OS X 10_15_7) AppleWebKit/537.36 (KHTML, like Gecko) Chrome/110.0.0.0 Safari/537.36" etag="9EnhqDRby559FzSsEJ8e" version="21.0.4" type="github">
  <diagram name="第 1 页" id="QKo8NytdfY4SwXGCYOuE">
    <mxGraphModel dx="954" dy="616" grid="1" gridSize="10" guides="1" tooltips="1" connect="1" arrows="1" fold="1" page="1" pageScale="1" pageWidth="827" pageHeight="1169" math="0" shadow="0">
      <root>
        <mxCell id="0" />
        <mxCell id="1" parent="0" />
        <mxCell id="Azow22UCt_u8D4eLtXmc-15" value="" style="html=1;verticalAlign=bottom;endArrow=block;edgeStyle=elbowEdgeStyle;elbow=vertical;curved=0;rounded=0;dashed=1;" edge="1" parent="1" source="Azow22UCt_u8D4eLtXmc-2" target="Azow22UCt_u8D4eLtXmc-6">
          <mxGeometry width="80" relative="1" as="geometry">
            <mxPoint x="700" y="305" as="sourcePoint" />
            <mxPoint x="780" y="305" as="targetPoint" />
            <Array as="points">
              <mxPoint x="780" y="335" />
              <mxPoint x="870" y="305" />
              <mxPoint x="760" y="305" />
              <mxPoint x="770" y="305" />
              <mxPoint x="730" y="295" />
              <mxPoint x="740" y="295" />
            </Array>
          </mxGeometry>
        </mxCell>
        <mxCell id="Azow22UCt_u8D4eLtXmc-17" value="投递消息" style="edgeLabel;html=1;align=center;verticalAlign=middle;resizable=0;points=[];" vertex="1" connectable="0" parent="Azow22UCt_u8D4eLtXmc-15">
          <mxGeometry x="-0.0427" y="2" relative="1" as="geometry">
            <mxPoint y="1" as="offset" />
          </mxGeometry>
        </mxCell>
        <mxCell id="Azow22UCt_u8D4eLtXmc-1" value="work-order-platform&lt;br&gt;" style="shape=umlLifeline;perimeter=lifelinePerimeter;whiteSpace=wrap;html=1;container=1;dropTarget=0;collapsible=0;recursiveResize=0;outlineConnect=0;portConstraint=eastwest;newEdgeStyle={&quot;edgeStyle&quot;:&quot;elbowEdgeStyle&quot;,&quot;elbow&quot;:&quot;vertical&quot;,&quot;curved&quot;:0,&quot;rounded&quot;:0};" vertex="1" parent="1">
          <mxGeometry x="380" y="160" width="120" height="440" as="geometry" />
        </mxCell>
        <mxCell id="Azow22UCt_u8D4eLtXmc-40" value="" style="html=1;points=[];perimeter=orthogonalPerimeter;outlineConnect=0;targetShapes=umlLifeline;portConstraint=eastwest;newEdgeStyle={&quot;edgeStyle&quot;:&quot;elbowEdgeStyle&quot;,&quot;elbow&quot;:&quot;vertical&quot;,&quot;curved&quot;:0,&quot;rounded&quot;:0};" vertex="1" parent="Azow22UCt_u8D4eLtXmc-1">
          <mxGeometry x="55" y="115" width="10" height="40" as="geometry" />
        </mxCell>
        <mxCell id="Azow22UCt_u8D4eLtXmc-41" value="创建心跳任务" style="html=1;align=left;spacingLeft=2;endArrow=block;rounded=0;edgeStyle=orthogonalEdgeStyle;curved=0;rounded=0;" edge="1" target="Azow22UCt_u8D4eLtXmc-40" parent="Azow22UCt_u8D4eLtXmc-1">
          <mxGeometry relative="1" as="geometry">
            <mxPoint x="60" y="95" as="sourcePoint" />
            <Array as="points">
              <mxPoint x="90" y="125" />
            </Array>
          </mxGeometry>
        </mxCell>
        <mxCell id="Azow22UCt_u8D4eLtXmc-2" value="sanqing" style="shape=umlLifeline;perimeter=lifelinePerimeter;whiteSpace=wrap;html=1;container=1;dropTarget=0;collapsible=0;recursiveResize=0;outlineConnect=0;portConstraint=eastwest;newEdgeStyle={&quot;edgeStyle&quot;:&quot;elbowEdgeStyle&quot;,&quot;elbow&quot;:&quot;vertical&quot;,&quot;curved&quot;:0,&quot;rounded&quot;:0};" vertex="1" parent="1">
          <mxGeometry x="640" y="160" width="120" height="440" as="geometry" />
        </mxCell>
        <mxCell id="Azow22UCt_u8D4eLtXmc-14" value="遍历数据" style="html=1;align=left;spacingLeft=2;endArrow=block;rounded=0;edgeStyle=orthogonalEdgeStyle;curved=0;rounded=0;" edge="1" target="Azow22UCt_u8D4eLtXmc-13" parent="Azow22UCt_u8D4eLtXmc-2">
          <mxGeometry relative="1" as="geometry">
            <mxPoint x="60" y="110" as="sourcePoint" />
            <Array as="points">
              <mxPoint x="90" y="140" />
            </Array>
          </mxGeometry>
        </mxCell>
        <mxCell id="Azow22UCt_u8D4eLtXmc-35" value="" style="html=1;points=[];perimeter=orthogonalPerimeter;outlineConnect=0;targetShapes=umlLifeline;portConstraint=eastwest;newEdgeStyle={&quot;edgeStyle&quot;:&quot;elbowEdgeStyle&quot;,&quot;elbow&quot;:&quot;vertical&quot;,&quot;curved&quot;:0,&quot;rounded&quot;:0};" vertex="1" parent="Azow22UCt_u8D4eLtXmc-2">
          <mxGeometry x="55" y="329" width="10" height="95" as="geometry" />
        </mxCell>
        <mxCell id="Azow22UCt_u8D4eLtXmc-54" value="" style="html=1;points=[];perimeter=orthogonalPerimeter;outlineConnect=0;targetShapes=umlLifeline;portConstraint=eastwest;newEdgeStyle={&quot;edgeStyle&quot;:&quot;elbowEdgeStyle&quot;,&quot;elbow&quot;:&quot;vertical&quot;,&quot;curved&quot;:0,&quot;rounded&quot;:0};" vertex="1" parent="Azow22UCt_u8D4eLtXmc-2">
          <mxGeometry x="60" y="369" width="10" height="40" as="geometry" />
        </mxCell>
        <mxCell id="Azow22UCt_u8D4eLtXmc-55" value="判断是否结束" style="html=1;align=left;spacingLeft=2;endArrow=block;rounded=0;edgeStyle=orthogonalEdgeStyle;curved=0;rounded=0;" edge="1" target="Azow22UCt_u8D4eLtXmc-54" parent="Azow22UCt_u8D4eLtXmc-2">
          <mxGeometry relative="1" as="geometry">
            <mxPoint x="65" y="349" as="sourcePoint" />
            <Array as="points">
              <mxPoint x="95" y="379" />
            </Array>
          </mxGeometry>
        </mxCell>
        <mxCell id="Azow22UCt_u8D4eLtXmc-56" value="" style="html=1;points=[];perimeter=orthogonalPerimeter;outlineConnect=0;targetShapes=umlLifeline;portConstraint=eastwest;newEdgeStyle={&quot;edgeStyle&quot;:&quot;elbowEdgeStyle&quot;,&quot;elbow&quot;:&quot;vertical&quot;,&quot;curved&quot;:0,&quot;rounded&quot;:0};" vertex="1" parent="Azow22UCt_u8D4eLtXmc-2">
          <mxGeometry x="55" y="70" width="10" height="110" as="geometry" />
        </mxCell>
        <mxCell id="Azow22UCt_u8D4eLtXmc-13" value="" style="html=1;points=[];perimeter=orthogonalPerimeter;outlineConnect=0;targetShapes=umlLifeline;portConstraint=eastwest;newEdgeStyle={&quot;edgeStyle&quot;:&quot;elbowEdgeStyle&quot;,&quot;elbow&quot;:&quot;vertical&quot;,&quot;curved&quot;:0,&quot;rounded&quot;:0};" vertex="1" parent="Azow22UCt_u8D4eLtXmc-2">
          <mxGeometry x="60" y="90" width="10" height="75" as="geometry" />
        </mxCell>
        <mxCell id="Azow22UCt_u8D4eLtXmc-6" value="mq" style="shape=umlLifeline;perimeter=lifelinePerimeter;whiteSpace=wrap;html=1;container=1;dropTarget=0;collapsible=0;recursiveResize=0;outlineConnect=0;portConstraint=eastwest;newEdgeStyle={&quot;edgeStyle&quot;:&quot;elbowEdgeStyle&quot;,&quot;elbow&quot;:&quot;vertical&quot;,&quot;curved&quot;:0,&quot;rounded&quot;:0};" vertex="1" parent="1">
          <mxGeometry x="870" y="160" width="120" height="440" as="geometry" />
        </mxCell>
        <mxCell id="Azow22UCt_u8D4eLtXmc-25" value="" style="html=1;verticalAlign=bottom;endArrow=block;edgeStyle=elbowEdgeStyle;elbow=vertical;curved=0;rounded=0;dashed=1;" edge="1" parent="1" source="Azow22UCt_u8D4eLtXmc-6" target="Azow22UCt_u8D4eLtXmc-1">
          <mxGeometry width="80" relative="1" as="geometry">
            <mxPoint x="690" y="445" as="sourcePoint" />
            <mxPoint x="910" y="445" as="targetPoint" />
            <Array as="points">
              <mxPoint x="730" y="405" />
              <mxPoint x="660" y="535" />
              <mxPoint x="920" y="445" />
              <mxPoint x="860" y="415" />
              <mxPoint x="750" y="415" />
              <mxPoint x="760" y="415" />
              <mxPoint x="720" y="405" />
              <mxPoint x="730" y="405" />
            </Array>
          </mxGeometry>
        </mxCell>
        <mxCell id="Azow22UCt_u8D4eLtXmc-26" value="数据监听" style="edgeLabel;html=1;align=center;verticalAlign=middle;resizable=0;points=[];" vertex="1" connectable="0" parent="Azow22UCt_u8D4eLtXmc-25">
          <mxGeometry x="-0.0427" y="2" relative="1" as="geometry">
            <mxPoint x="22" y="-2" as="offset" />
          </mxGeometry>
        </mxCell>
        <mxCell id="Azow22UCt_u8D4eLtXmc-27" value="" style="html=1;verticalAlign=bottom;endArrow=block;edgeStyle=elbowEdgeStyle;elbow=vertical;curved=0;rounded=0;dashed=1;" edge="1" parent="1" source="Azow22UCt_u8D4eLtXmc-1" target="Azow22UCt_u8D4eLtXmc-56">
          <mxGeometry width="80" relative="1" as="geometry">
            <mxPoint x="500" y="235" as="sourcePoint" />
            <mxPoint x="690" y="235" as="targetPoint" />
            <Array as="points">
              <mxPoint x="580" y="235" />
              <mxPoint x="670" y="205" />
              <mxPoint x="560" y="205" />
              <mxPoint x="570" y="205" />
              <mxPoint x="530" y="195" />
              <mxPoint x="540" y="195" />
            </Array>
          </mxGeometry>
        </mxCell>
        <mxCell id="Azow22UCt_u8D4eLtXmc-28" value="发送投递指令" style="edgeLabel;html=1;align=center;verticalAlign=middle;resizable=0;points=[];" vertex="1" connectable="0" parent="Azow22UCt_u8D4eLtXmc-27">
          <mxGeometry x="-0.0427" y="2" relative="1" as="geometry">
            <mxPoint y="1" as="offset" />
          </mxGeometry>
        </mxCell>
        <mxCell id="Azow22UCt_u8D4eLtXmc-36" value="发送心跳指令" style="html=1;verticalAlign=bottom;endArrow=block;edgeStyle=elbowEdgeStyle;elbow=vertical;curved=0;rounded=0;" edge="1" target="Azow22UCt_u8D4eLtXmc-35" parent="1">
          <mxGeometry relative="1" as="geometry">
            <mxPoint x="439.5" y="494" as="sourcePoint" />
            <Array as="points">
              <mxPoint x="620" y="494" />
            </Array>
          </mxGeometry>
        </mxCell>
        <mxCell id="Azow22UCt_u8D4eLtXmc-37" value="结束标识" style="html=1;verticalAlign=bottom;endArrow=open;dashed=1;endSize=8;edgeStyle=elbowEdgeStyle;elbow=vertical;curved=0;rounded=0;" edge="1" source="Azow22UCt_u8D4eLtXmc-35" parent="1">
          <mxGeometry relative="1" as="geometry">
            <mxPoint x="439.5" y="579" as="targetPoint" />
            <Array as="points">
              <mxPoint x="630" y="579" />
              <mxPoint x="660" y="539" />
              <mxPoint x="570" y="569" />
            </Array>
          </mxGeometry>
        </mxCell>
      </root>
    </mxGraphModel>
  </diagram>
</mxfile>
